<svg id="svg4619" xmlns="http://www.w3.org/2000/svg" viewBox="0 0 12.8 13.5"><defs><style>.cls-1{fill:#fff;}</style></defs><g id="g3"><path id="path5" class="cls-1" d="M13.2,1.5a3.38,3.38,0,0,0-1.95.5,2.3,2.3,0,0,0-.75,2H1.2L2.59,8.81l0,0A1.72,1.72,0,0,0,4.19,10H10.7v.2a1.73,1.73,0,0,1-.2.7c-.2.4-.3.6-1.1.6H2.9a.75.75,0,0,0,0,1.5H9.3a2.6,2.6,0,0,0,2.4-1.4,3.65,3.65,0,0,0,.3-1.3V4c0-.52.23-1,.7-1h.55a.75.75,0,0,0,0-1.5ZM9.2,13a1,1,0,0,0,0,2,1,1,0,0,0,0-2Zm-5,0a1,1,0,1,0,0,2,1,1,0,0,0,0-2Z" transform="translate(-1.2 -1.5)"/></g></svg>