<?xml version="1.0" encoding="UTF-8" standalone="no"?>
<!-- Created with Inkscape (http://www.inkscape.org/) -->

<svg
   width="463"
   height="438"
   viewBox="0 0 463 438"
   version="1.1"
   id="SVGRoot"
   sodipodi:docname="C:\Users\Radeesh\AppData\Local\Temp\ink_ext_XXXXXX.svg38AG21"
   xml:space="preserve"
   inkscape:export-filename="home.png"
   inkscape:export-xdpi="96"
   inkscape:export-ydpi="96"
   xmlns:inkscape="http://www.inkscape.org/namespaces/inkscape"
   xmlns:sodipodi="http://sodipodi.sourceforge.net/DTD/sodipodi-0.dtd"
   xmlns="http://www.w3.org/2000/svg"
   xmlns:svg="http://www.w3.org/2000/svg"><sodipodi:namedview
     id="namedview360"
     pagecolor="#ffffff"
     bordercolor="#000000"
     borderopacity="0.25"
     inkscape:showpageshadow="2"
     inkscape:pageopacity="0.0"
     inkscape:pagecheckerboard="0"
     inkscape:deskcolor="#d1d1d1"
     inkscape:document-units="px"
     showgrid="false"
     inkscape:zoom="0.25"
     inkscape:cx="874.5"
     inkscape:cy="827.5"
     inkscape:current-layer="layer1" /><defs
     id="defs355" /><g
     inkscape:label="Layer 1"
     inkscape:groupmode="layer"
     id="layer1"><g
       id="layer1-4"
       transform="translate(-42.784,-276.78)"
       style="fill:#ffffff"><path
         id="rect2391"
         d="m 437.15,499.44 z m 0,0 L 274.33,355.25 111.43,499.5 v 206.12 c 0,5.33 4.3,9.6 9.62,9.6 h 101.81 v -90.38 c 0,-5.32 4.27,-9.62 9.6,-9.62 h 83.65 c 5.33,0 9.6,4.3 9.6,9.62 v 90.38 h 101.84 c 5.32,0 9.6,-4.27 9.6,-9.6 z m -325.72,0.06 z"
         style="fill:#ffffff" /><path
         id="path2399"
         d="m 273.39,276.34 -231.05,204.59 24.338,27.45 207.65,-183.88 207.61,183.88 24.29,-27.45 -231,-204.59 -0.9,1.04 -0.94,-1.04 z"
         style="fill:#ffffff" /><path
         id="rect2404"
         d="M 111.43,305.79 H 170 l -0.51,34.69 -58.06,52.45 z"
         style="fill:#ffffff" /></g></g></svg>
