<?xml version="1.0" encoding="UTF-8" standalone="no"?>
<!-- Created with Inkscape (http://www.inkscape.org/) -->

<svg
   width="100"
   height="100"
   viewBox="0 0 100 100"
   version="1.1"
   id="SVGRoot"
   sodipodi:docname="C:\Users\Radeesh\AppData\Local\Temp\ink_ext_XXXXXX.svgZCNX21"
   xml:space="preserve"
   inkscape:export-filename="theme.svg"
   inkscape:export-xdpi="96"
   inkscape:export-ydpi="96"
   xmlns:inkscape="http://www.inkscape.org/namespaces/inkscape"
   xmlns:sodipodi="http://sodipodi.sourceforge.net/DTD/sodipodi-0.dtd"
   xmlns="http://www.w3.org/2000/svg"
   xmlns:svg="http://www.w3.org/2000/svg"><sodipodi:namedview
     id="namedview797"
     pagecolor="#ffffff"
     bordercolor="#000000"
     borderopacity="0.25"
     inkscape:showpageshadow="2"
     inkscape:pageopacity="0.0"
     inkscape:pagecheckerboard="0"
     inkscape:deskcolor="#d1d1d1"
     inkscape:document-units="px"
     showgrid="false"
     inkscape:zoom="0.25"
     inkscape:cx="188.5"
     inkscape:cy="188.5"
     inkscape:current-layer="layer1" /><defs
     id="defs792" /><g
     inkscape:label="Layer 1"
     inkscape:groupmode="layer"
     id="layer1"><g
       style="fill:#ffffff;stroke-width:6.87879"
       id="g1283"
       transform="matrix(0.22714765,0,0,0.22714765,-8.1498346,-8.1497991)"><path
         d="m 256.0015,93.5976 c -116.023,0 -210,72.6244 -210,162.3119 C 44.8479,381.6074 223.063,452.2291 346.74,402.2071 a 45.0282,45.0282 0 0 0 24.5,-62.56 c -13.2531,-26.9208 -36.1087,-55.6723 -5.0735,-78.5749 a 35.4778,35.4778 0 0 1 41.56,1.3117 L 425.14,275.86 c 16.5857,12.9071 41.1545,1.0575 40.8618,-19.95 C 466.0015,166.222 371.939,93.5976 256.0015,93.5976 Z M 142.777,261.86 c -31.6119,25.16 -69.686,-20.1777 -39.375,-46.9 31.618,-25.1658 69.618,20.1682 39.375,46.9 z m 30.1,-90.9126 c 1.004,-40.3982 60.2524,-40.39 61.25,0.001 -1.0579,40.3821 -60.197,40.3736 -61.2505,-0.001 z m 129.6751,156.1007 c -7.7609,47.2128 -100.2063,35.2243 -95.8121,-12.3389 7.8079,-47.1541 100.33,-35.2969 95.8121,12.3389 z m 5.9494,-125.4758 c -40.394,-1.0574 -40.3748,-60.2566 0,-61.25 40.3833,0.9977 40.3854,60.2011 0,61.25 z"
         id="path1272"
         style="fill:#ffffff;stroke-width:6.87879" /></g></g></svg>
